<?xml version="1.0" standalone="no"?>
<!DOCTYPE svg PUBLIC "-//W3C//DTD SVG 1.1//EN"
"http://www.w3.org/Graphics/SVG/1.1/DTD/svg11.dtd">

<svg width="334" height="198" view_box="0 0 334 198"
xmlns="http://www.w3.org/2000/svg"
xmlns:link="http://www.w3.org/1999/xlink">\n\n<desc>Généré par Mocodo 2.3.7 le Sun, 29 Mar 2020 07:50:53</desc>

<rect id="frame" x="0" y="0" width="334" height="198" fill="#ffffbf" stroke="none" stroke-width="0"/>

<!-- Association have tag of -->
<line x1="298" y1="99" x2="188" y2="99" stroke="#66c2a5" stroke-width="1.5"/>
<text x="244" y="116.0" fill="#d53e4f" font-family="Arial" font-size="12">1,N</text>
<line x1="57" y1="99" x2="188" y2="99" stroke="#66c2a5" stroke-width="1.5"/>
<text x="111" y="116.0" fill="#d53e4f" font-family="Arial" font-size="12">1,N</text>
<g id="association-have tag of">
	<path d="M 224 71 a 14 14 90 0 1 14 14 V 98 h -100 V 85 a 14 14 90 0 1 14 -14" fill="#abdda4" stroke="#abdda4" stroke-width="0"/>
	<path d="M 238 98.0 v 15 a 14 14 90 0 1 -14 14 H 152 a 14 14 90 0 1 -14 -14 V 98.0 H 100" fill="#e6f598" stroke="#e6f598" stroke-width="0"/>
	<rect x="138" y="71" width="100" height="56" fill="none" rx="14" stroke="#66c2a5" stroke-width="3"/>
	<line x1="138" y1="98" x2="238" y2="98" stroke="#66c2a5" stroke-width="1.5"/>
	<text x="147" y="91.3" fill="#000000" font-family="Arial Black" font-size="13">have tag of</text>
</g>

<!-- Entity PERSON -->
<g id="entity-PERSON">
	<g id="frame-PERSON">
		<rect x="9" y="9" width="96" height="28" fill="#fdae61" stroke="#fdae61" stroke-width="0"/>
		<rect x="9" y="37.0" width="96" height="152" fill="#fee08b" stroke="#fee08b" stroke-width="0"/>
		<rect x="9" y="9" width="96" height="180" fill="none" stroke="#f46d43" stroke-width="3"/>
		<line x1="9" y1="37" x2="105" y2="37" stroke="#f46d43" stroke-width="1.5"/>
	</g>
	<text x="26" y="29.3" fill="#000000" font-family="Arial Black" font-size="13">PERSON</text>
	<text x="17" y="53.2" fill="#000000" font-family="Arial" font-size="14">id</text>
	<line x1="17" y1="56" x2="29" y2="56" stroke="#000000" stroke-width="1.2"/>
	<text x="17" y="71.2" fill="#000000" font-family="Arial" font-size="14">gender</text>
	<text x="17" y="89.2" fill="#000000" font-family="Arial" font-size="14">name</text>
	<text x="17" y="107.2" fill="#000000" font-family="Arial" font-size="14">familyName</text>
	<text x="17" y="125.2" fill="#000000" font-family="Arial" font-size="14">address</text>
	<text x="17" y="143.2" fill="#000000" font-family="Arial" font-size="14">email</text>
	<text x="17" y="161.2" fill="#000000" font-family="Arial" font-size="14">phone</text>
	<text x="17" y="179.2" fill="#000000" font-family="Arial" font-size="14">affilitaion</text>
</g>

<!-- Entity TAG -->
<g id="entity-TAG">
	<g id="frame-TAG">
		<rect x="271" y="63" width="54" height="28" fill="#fdae61" stroke="#fdae61" stroke-width="0"/>
		<rect x="271" y="91.0" width="54" height="44" fill="#fee08b" stroke="#fee08b" stroke-width="0"/>
		<rect x="271" y="63" width="54" height="72" fill="none" stroke="#f46d43" stroke-width="3"/>
		<line x1="271" y1="91" x2="325" y2="91" stroke="#f46d43" stroke-width="1.5"/>
	</g>
	<text x="282" y="83.3" fill="#000000" font-family="Arial Black" font-size="13">TAG</text>
	<text x="279" y="107.2" fill="#000000" font-family="Arial" font-size="14">id</text>
	<line x1="279" y1="110" x2="291" y2="110" stroke="#000000" stroke-width="1.2"/>
	<text x="279" y="125.2" fill="#000000" font-family="Arial" font-size="14">name</text>
</g>
</svg>